<svg width="103" height="39" viewBox="0 0 103 39" fill="none" xmlns="http://www.w3.org/2000/svg">
<path d="M17.056 3.344C19.168 3.344 20.896 3.664 22.24 4.304C23.616 4.912 24.832 5.632 25.888 6.464C26.528 6.944 27.008 7.008 27.328 6.656C27.68 6.272 27.92 5.392 28.048 4.016H29.152C29.088 5.264 29.04 6.784 29.008 8.576C28.976 10.336 28.96 12.688 28.96 15.632H27.856C27.696 14.16 27.488 12.912 27.232 11.888C26.976 10.832 26.624 9.904 26.176 9.104C25.728 8.304 25.088 7.584 24.256 6.944C23.456 6.144 22.528 5.552 21.472 5.168C20.416 4.784 19.312 4.592 18.16 4.592C16.432 4.592 14.96 5.056 13.744 5.984C12.528 6.88 11.536 8.112 10.768 9.68C10.032 11.248 9.488 13.024 9.136 15.008C8.784 16.96 8.608 18.992 8.608 21.104C8.608 23.248 8.784 25.312 9.136 27.296C9.52 29.248 10.096 30.992 10.864 32.528C11.664 34.064 12.688 35.28 13.936 36.176C15.184 37.072 16.656 37.52 18.352 37.52C19.408 37.52 20.464 37.328 21.52 36.944C22.608 36.528 23.536 35.936 24.304 35.168C25.552 34.208 26.4 33.024 26.848 31.616C27.296 30.176 27.632 28.272 27.856 25.904H28.96C28.96 28.944 28.976 31.408 29.008 33.296C29.04 35.152 29.088 36.72 29.152 38H28.048C27.92 36.624 27.696 35.76 27.376 35.408C27.088 35.056 26.592 35.104 25.888 35.552C24.704 36.384 23.44 37.12 22.096 37.76C20.784 38.368 19.088 38.672 17.008 38.672C13.616 38.672 10.64 37.984 8.08 36.608C5.552 35.232 3.584 33.248 2.176 30.656C0.768 28.064 0.0640001 24.944 0.0640001 21.296C0.0640001 17.712 0.784 14.576 2.224 11.888C3.696 9.2 5.696 7.104 8.224 5.6C10.784 4.096 13.728 3.344 17.056 3.344ZM42.7878 0.415998V33.536C42.7878 34.88 43.0118 35.792 43.4598 36.272C43.9398 36.752 44.7398 36.992 45.8598 36.992V38C45.2518 37.968 44.3398 37.936 43.1238 37.904C41.9078 37.84 40.6758 37.808 39.4278 37.808C38.1798 37.808 36.9158 37.84 35.6358 37.904C34.3878 37.936 33.4438 37.968 32.8038 38V36.992C33.9238 36.992 34.7078 36.752 35.1558 36.272C35.6358 35.792 35.8758 34.88 35.8758 33.536V6.176C35.8758 4.736 35.6518 3.68 35.2038 3.008C34.7878 2.304 33.9878 1.952 32.8038 1.952V0.943999C33.8278 1.04 34.8198 1.088 35.7798 1.088C37.0918 1.088 38.3398 1.04 39.5238 0.943999C40.7078 0.815999 41.7958 0.639998 42.7878 0.415998ZM54.526 38.336C53.086 38.336 51.886 38.064 50.926 37.52C49.966 36.976 49.262 36.256 48.814 35.36C48.366 34.432 48.142 33.424 48.142 32.336C48.142 30.96 48.446 29.84 49.054 28.976C49.694 28.112 50.51 27.408 51.502 26.864C52.494 26.32 53.534 25.872 54.622 25.52C55.742 25.168 56.798 24.832 57.79 24.512C58.814 24.16 59.63 23.76 60.238 23.312C60.878 22.832 61.198 22.224 61.198 21.488V17.744C61.198 16.912 61.054 16.176 60.766 15.536C60.51 14.864 60.094 14.352 59.518 14C58.974 13.648 58.254 13.472 57.358 13.472C56.718 13.472 56.078 13.568 55.438 13.76C54.798 13.92 54.27 14.208 53.854 14.624C54.75 14.944 55.438 15.44 55.918 16.112C56.43 16.752 56.686 17.488 56.686 18.32C56.686 19.408 56.302 20.272 55.534 20.912C54.798 21.552 53.918 21.872 52.894 21.872C51.742 21.872 50.862 21.52 50.254 20.816C49.678 20.08 49.39 19.2 49.39 18.176C49.39 17.248 49.614 16.48 50.062 15.872C50.542 15.264 51.198 14.688 52.03 14.144C52.926 13.632 53.998 13.232 55.246 12.944C56.526 12.656 57.902 12.512 59.374 12.512C60.846 12.512 62.174 12.672 63.358 12.992C64.542 13.28 65.534 13.824 66.334 14.624C67.07 15.36 67.55 16.272 67.774 17.36C67.998 18.416 68.11 19.76 68.11 21.392V34.448C68.11 35.248 68.19 35.808 68.35 36.128C68.51 36.416 68.782 36.56 69.166 36.56C69.454 36.56 69.726 36.48 69.982 36.32C70.27 36.16 70.574 35.968 70.894 35.744L71.374 36.56C70.702 37.136 69.918 37.584 69.022 37.904C68.158 38.192 67.182 38.336 66.094 38.336C64.91 38.336 63.966 38.176 63.262 37.856C62.558 37.504 62.046 37.04 61.726 36.464C61.438 35.888 61.294 35.216 61.294 34.448C60.526 35.664 59.598 36.624 58.51 37.328C57.422 38 56.094 38.336 54.526 38.336ZM57.934 35.264C58.574 35.264 59.15 35.12 59.662 34.832C60.206 34.512 60.718 34 61.198 33.296V23.456C60.91 23.936 60.51 24.368 59.998 24.752C59.486 25.136 58.942 25.536 58.366 25.952C57.79 26.336 57.23 26.768 56.686 27.248C56.174 27.728 55.758 28.32 55.438 29.024C55.118 29.728 54.958 30.576 54.958 31.568C54.958 32.816 55.23 33.744 55.774 34.352C56.318 34.96 57.038 35.264 57.934 35.264ZM82.4898 5.312V13.184H88.1538V14.144H82.4898V33.536C82.4898 34.496 82.6658 35.184 83.0178 35.6C83.3698 35.984 83.8978 36.176 84.6018 36.176C85.1778 36.176 85.7538 35.968 86.3298 35.552C86.9058 35.104 87.4178 34.352 87.8658 33.296L88.6818 33.728C88.1698 35.168 87.3858 36.352 86.3298 37.28C85.3058 38.208 83.8978 38.672 82.1058 38.672C81.0498 38.672 80.1218 38.528 79.3218 38.24C78.5218 37.984 77.8498 37.584 77.3058 37.04C76.6018 36.336 76.1378 35.472 75.9138 34.448C75.6898 33.392 75.5778 32.032 75.5778 30.368V14.144H71.5457V13.184H75.5778V6.848C76.9218 6.848 78.1538 6.736 79.2738 6.512C80.4258 6.256 81.4978 5.856 82.4898 5.312ZM95.8608 0.799998C97.2048 0.799998 98.2608 1.136 99.0288 1.808C99.8288 2.448 100.229 3.344 100.229 4.496C100.229 5.648 99.8288 6.56 99.0288 7.232C98.2608 7.872 97.2048 8.192 95.8608 8.192C94.5168 8.192 93.4448 7.872 92.6448 7.232C91.8768 6.56 91.4928 5.648 91.4928 4.496C91.4928 3.344 91.8768 2.448 92.6448 1.808C93.4448 1.136 94.5168 0.799998 95.8608 0.799998ZM99.6048 12.656V33.536C99.6048 34.88 99.8288 35.792 100.277 36.272C100.757 36.752 101.557 36.992 102.677 36.992V38C102.101 37.968 101.205 37.936 99.9888 37.904C98.7728 37.84 97.5408 37.808 96.2928 37.808C95.0448 37.808 93.7808 37.84 92.5008 37.904C91.2208 37.936 90.2608 37.968 89.6208 38V36.992C90.7408 36.992 91.5248 36.752 91.9728 36.272C92.4528 35.792 92.6928 34.88 92.6928 33.536V18.416C92.6928 16.976 92.4688 15.92 92.0208 15.248C91.6048 14.544 90.8048 14.192 89.6208 14.192V13.184C90.6448 13.28 91.6368 13.328 92.5968 13.328C93.9408 13.328 95.1888 13.28 96.3408 13.184C97.5248 13.056 98.6128 12.88 99.6048 12.656Z" fill="#141414"/>
</svg>
